<svg xmlns="http://www.w3.org/2000/svg" width="120" height="120" viewBox="0 0 120 120" role="img" aria-label="scientificpub2md logo">
  <defs>
    <linearGradient id="g" x1="0" y1="0" x2="1" y2="1">
      <stop offset="0" stop-color="#4f46e5"/>
      <stop offset="1" stop-color="#06b6d4"/>
    </linearGradient>
  </defs>
  <!-- page with folded corner -->
  <path d="M28 14 h44 l20 20 v72 a4 4 0 0 1-4 4 H28 a4 4 0 0 1-4-4 V18 a4 4 0 0 1 4-4 z" fill="#ffffff" stroke="url(#g)" stroke-width="4"/>
  <path d="M72 14 v20 h20 z" fill="url(#g)" opacity="0.85"/>
  <!-- markdown header hashes -->
  <text x="36" y="58" font-family="ui-monospace,Menlo,Consolas,monospace" font-size="22" font-weight="700" fill="url(#g)">##</text>
  <!-- text lines (body) -->
  <rect x="36" y="68" width="48" height="5" rx="2.5" fill="#cbd5e1"/>
  <rect x="36" y="79" width="40" height="5" rx="2.5" fill="#cbd5e1"/>
  <rect x="36" y="90" width="44" height="5" rx="2.5" fill="#cbd5e1"/>
  <!-- .md badge -->
  <rect x="60" y="96" width="34" height="18" rx="5" fill="url(#g)"/>
  <text x="77" y="109" text-anchor="middle" font-family="ui-monospace,Menlo,Consolas,monospace" font-size="11" font-weight="700" fill="#ffffff">.md</text>
</svg>
